<svg width="115" height="94" viewBox="0 0 115 94" fill="none" xmlns="http://www.w3.org/2000/svg">
<path d="M36.3474 56.286C33.8034 56.286 31.5114 55.734 29.4714 54.63C27.4314 53.502 25.8234 51.954 24.6474 49.986C23.4954 48.018 22.9194 45.822 22.9194 43.398C22.9194 40.974 23.4954 38.778 24.6474 36.81C25.8234 34.842 27.4314 33.306 29.4714 32.202C31.5114 31.074 33.8034 30.51 36.3474 30.51C38.8674 30.51 41.1474 31.074 43.1874 32.202C45.2274 33.306 46.8234 34.842 47.9754 36.81C49.1274 38.754 49.7034 40.95 49.7034 43.398C49.7034 45.846 49.1274 48.054 47.9754 50.022C46.8234 51.966 45.2274 53.502 43.1874 54.63C41.1474 55.734 38.8674 56.286 36.3474 56.286ZM36.3474 53.082C38.1954 53.082 39.8514 52.662 41.3154 51.822C42.8034 50.982 43.9674 49.83 44.8074 48.366C45.6714 46.878 46.1034 45.222 46.1034 43.398C46.1034 41.574 45.6714 39.93 44.8074 38.466C43.9674 36.978 42.8034 35.814 41.3154 34.974C39.8514 34.134 38.1954 33.714 36.3474 33.714C34.4994 33.714 32.8194 34.134 31.3074 34.974C29.8194 35.814 28.6434 36.978 27.7794 38.466C26.9394 39.93 26.5194 41.574 26.5194 43.398C26.5194 45.222 26.9394 46.878 27.7794 48.366C28.6434 49.83 29.8194 50.982 31.3074 51.822C32.8194 52.662 34.4994 53.082 36.3474 53.082ZM78.5698 55.998L78.5338 37.638L69.4258 52.938H67.7698L58.6618 37.746V55.998H55.2058V30.798H58.1578L68.6698 48.51L79.0378 30.798H81.9898L82.0258 55.998H78.5698Z" fill="#333333"/>
<path d="M97.6783 20.6303L96.2649 20.1981C96.0688 20.1382 95.8618 20.1946 95.7294 20.3438C95.386 20.7314 95.0092 21.0999 94.6093 21.4391C91.6452 23.9542 87.9246 24.8129 83.85 23.9238C79.7957 23.0391 77.9322 20.6925 75.353 17.4446C75.1686 17.2123 74.981 16.9761 74.7891 16.7362C74.7673 16.7088 74.7416 16.6729 74.7144 16.6349C74.6428 16.5348 74.5536 16.4103 74.4281 16.2875C74.2576 16.1206 74.0719 15.9651 73.8761 15.8254C73.4716 15.5368 73.2018 15.0825 73.1361 14.5789L72.7024 11.2571C72.6836 11.1131 72.6098 10.9801 72.4971 10.8871C72.3846 10.794 72.2423 10.7487 72.1017 10.7611L69.9617 10.9493C69.6692 10.9749 69.4637 11.2389 69.5027 11.5386L69.9187 14.7249C69.9642 15.0737 69.8514 15.4285 69.6092 15.6982C69.2393 16.11 69.0509 16.6182 69.0642 17.1678C69.2326 24.1166 73.8916 29.2599 81.5271 30.9259C84.8224 31.645 88.3266 31.215 91.3941 29.7151C92.0115 29.4132 92.5957 29.0753 93.1441 28.7034C93.9085 28.1849 94.6034 27.6 95.2215 26.9541C96.3264 25.7996 97.1295 24.5067 97.6087 23.1115C97.8142 22.5128 97.971 21.8922 98.0744 21.2665C98.1203 20.9895 97.948 20.7128 97.6783 20.6303ZM70.6332 11.988L71.7136 11.893L72.0011 14.0948L71.5648 14.1055L70.9117 14.1214L70.6332 11.988ZM92.5314 27.7877C89.5608 29.8022 85.5296 30.6961 81.7032 29.8611C74.613 28.314 70.2877 23.578 70.1329 17.1923C70.1246 16.8493 70.2808 16.6014 70.4132 16.454C70.728 16.1034 70.9232 15.6689 70.9802 15.2107L72.1886 15.1811C72.3811 15.7943 72.7672 16.3344 73.2911 16.7081C73.4387 16.8134 73.5786 16.9304 73.7067 17.0558C73.7595 17.1074 73.8063 17.173 73.8607 17.249C73.8956 17.2978 73.9317 17.3482 73.9729 17.3997C74.1639 17.6388 74.3508 17.874 74.5345 18.1053C77.1583 21.4095 79.2307 24.0191 83.6737 24.9886C85.9004 25.4745 88.0495 25.4732 90.0614 24.9849C91.8865 24.5419 93.5656 23.7078 95.0574 22.5036L95.0933 22.5211L95.2848 22.6147C94.5154 23.8098 93.5337 24.8052 92.3974 25.5758C89.9006 27.2691 86.662 27.8795 83.3163 27.1494C78.1068 26.0127 74.3962 23.2091 72.8678 19.2549C72.758 18.9707 72.4468 18.8203 72.1728 18.9189C71.8987 19.0174 71.7657 19.3278 71.8755 19.612C73.548 23.9392 77.5485 26.9943 83.1401 28.2143C85.8685 28.8096 88.5783 28.5928 90.9764 27.5872C91.7048 27.2818 92.3903 26.9106 93.0272 26.4785C94.3342 25.592 95.4353 24.4496 96.2776 23.0997L96.424 23.1712C95.6693 25.0177 94.2854 26.598 92.5314 27.7877ZM96.7706 22.1549L96.5521 22.0482L95.9213 21.74C96.0568 21.6084 96.1891 21.4738 96.3175 21.3366L96.9274 21.5231C96.8817 21.7353 96.8294 21.9461 96.7706 22.1549Z" fill="black"/>
</svg>
