<svg width="30" height="22" viewBox="0 0 30 22" fill="none" xmlns="http://www.w3.org/2000/svg">
<path d="M28.6783 10.6303L27.2649 10.1981C27.0688 10.1382 26.8618 10.1946 26.7294 10.3438C26.386 10.7314 26.0092 11.0999 25.6093 11.4391C22.6452 13.9542 18.9246 14.8129 14.85 13.9238C10.7957 13.0391 8.93217 10.6925 6.35305 7.44462C6.16856 7.2123 5.98098 6.97606 5.78914 6.73621C5.76727 6.70883 5.74164 6.67287 5.71437 6.63487C5.64275 6.5348 5.55363 6.4103 5.4281 6.28749C5.25764 6.12057 5.07192 5.96512 4.87608 5.82544C4.47155 5.53685 4.20177 5.08253 4.13606 4.57886L3.70242 1.25713C3.6836 1.11312 3.60979 0.980069 3.49713 0.887067C3.38455 0.794007 3.24231 0.748664 3.10175 0.761095L0.961705 0.949319C0.669216 0.974949 0.463684 1.23888 0.502723 1.53859L0.918668 4.72487C0.964196 5.07372 0.851422 5.42849 0.609216 5.69823C0.239321 6.11003 0.0508662 6.61824 0.0642475 7.16782C0.232604 14.1166 4.89164 19.2599 12.5271 20.9259C15.8224 21.645 19.3266 21.215 22.3941 19.7151C23.0115 19.4132 23.5957 19.0753 24.1441 18.7034C24.9085 18.1849 25.6034 17.6 26.2215 16.9541C27.3264 15.7996 28.1295 14.5067 28.6087 13.1115C28.8142 12.5128 28.971 11.8922 29.0744 11.2665C29.1203 10.9895 28.948 10.7128 28.6783 10.6303ZM1.63318 1.98804L2.71361 1.89302L3.00107 4.09481L2.56476 4.10547L1.91169 4.12145L1.63318 1.98804ZM23.5314 17.7877C20.5608 19.8022 16.5296 20.6961 12.7032 19.8611C5.61299 18.314 1.28765 13.578 1.13291 7.19227C1.12455 6.84928 1.28076 6.60143 1.41325 6.45395C1.72799 6.10336 1.92318 5.6689 1.98016 5.21066L3.18865 5.18111C3.38109 5.79431 3.76716 6.33439 4.29112 6.70805C4.43875 6.81339 4.57857 6.93037 4.7067 7.05581C4.75947 7.10744 4.80634 7.17305 4.8607 7.24897C4.89561 7.29778 4.93166 7.34817 4.97286 7.39972C5.16391 7.63879 5.3508 7.874 5.5345 8.10535C8.15832 11.4095 10.2307 14.0191 14.6737 14.9886C16.9004 15.4745 19.0495 15.4732 21.0614 14.9849C22.8865 14.5419 24.5656 13.7078 26.0574 12.5036L26.0933 12.5211L26.2848 12.6147C25.5154 13.8098 24.5337 14.8052 23.3974 15.5758C20.9006 17.2691 17.662 17.8795 14.3163 17.1494C9.1068 16.0127 5.39617 13.2091 3.86781 9.25491C3.758 8.97069 3.44684 8.8203 3.17276 8.91891C2.8987 9.01743 2.7657 9.32779 2.87555 9.61205C4.54805 13.9392 8.5485 16.9943 14.1401 18.2143C16.8685 18.8096 19.5783 18.5928 21.9764 17.5872C22.7048 17.2818 23.3903 16.9106 24.0272 16.4785C25.3342 15.592 26.4353 14.4496 27.2776 13.0997L27.424 13.1712C26.6694 15.0177 25.2854 16.598 23.5314 17.7877ZM27.7706 12.1549L27.5521 12.0482L26.9213 11.74C27.0568 11.6084 27.1891 11.4738 27.3175 11.3366L27.9274 11.5231C27.8817 11.7353 27.8294 11.9461 27.7706 12.1549Z" fill="black"/>
</svg>
